<svg 
  version="1.1"
  xmlns="http://www.w3.org/2000/svg" 
  xmlns:xlink="http://www.w3.org/1999/xlink"  
  x="0" 
  y="0"  
  viewBox="0 0 1200 1200" 
  xml:space="preserve" 
  enable-background="new 0 0 1200 1200"
>
  <path 
    fill-rule="evenodd" 
    clip-rule="evenodd" 
    d="M1200 709.091C1200 1063.64 1149.98 1145.45 600 1145.45C561.218 1145.45 524.891 1145.07 490.909 1144.15C43.2 1132.58 0 1038.6 0 709.091V436.309C0 376.036 48.8182 327.273 109.091 327.273H1090.91C1119.83 327.273 1147.57 338.759 1168.03 359.206C1188.49 379.652 1199.99 407.386 1200 436.309V709.091ZM599.018 607.091C669.873 537.273 740.673 554.727 776.127 589.636C917.782 729.273 642.491 913.636 599.018 913.636C555.6 913.636 280.309 729.273 421.964 589.636C457.418 554.727 528.218 537.273 599.018 607.091Z" 
  />
  <path 
    fill-rule="evenodd" 
      clip-rule="evenodd" 
      d="M600.001 0C527.669 0 458.3 28.7337 407.153 79.88C356.007 131.026 327.273 200.396 327.273 272.727V381.818C327.273 396.285 333.02 410.158 343.249 420.388C353.479 430.617 367.353 436.364 381.819 436.364C396.285 436.364 410.159 430.617 420.388 420.388C430.618 410.158 436.364 396.285 436.364 381.818V272.727C436.364 229.328 453.605 187.707 484.292 157.019C514.98 126.331 556.602 109.091 600.001 109.091C643.4 109.091 685.021 126.331 715.709 157.019C746.397 187.707 763.637 229.328 763.637 272.727V381.818C763.637 396.285 769.384 410.158 779.613 420.388C789.842 430.617 803.716 436.364 818.183 436.364C832.649 436.364 846.523 430.617 856.752 420.388C866.981 410.158 872.728 396.285 872.728 381.818V272.727C872.728 200.396 843.994 131.026 792.848 79.88C741.702 28.7337 672.332 0 600.001 0Z" 
    />
</svg>
